<svg xmlns="http://www.w3.org/2000/svg" viewBox="0 0 256 256" role="img" aria-labelledby="title desc">
  <title id="title">AVAX Node</title>
  <desc id="desc">Red Avalanche-style node glyph for Memetic Masters TCG.</desc>
  <defs>
    <radialGradient id="glow" cx="50%" cy="38%" r="68%">
      <stop offset="0%" stop-color="#ff8f8f"/>
      <stop offset="48%" stop-color="#e84142"/>
      <stop offset="100%" stop-color="#7a0d16"/>
    </radialGradient>
    <filter id="shadow" x="-20%" y="-20%" width="140%" height="140%">
      <feDropShadow dx="0" dy="8" stdDeviation="8" flood-color="#3b0508" flood-opacity="0.45"/>
    </filter>
  </defs>
  <rect width="256" height="256" rx="56" fill="url(#glow)"/>
  <circle cx="128" cy="128" r="98" fill="none" stroke="#ffffff" stroke-opacity="0.22" stroke-width="6"/>
  <g filter="url(#shadow)" fill="#ffffff">
    <path d="M126.5 47.5c4.6-8 16.2-8 20.8 0l61.2 106c4.6 8-1.2 18-10.4 18h-42.3c-4.3 0-8.3-2.3-10.4-6l-24.5-42.4c-2.1-3.7-2.1-8.3 0-12l5.6-9.7c4.6-8 16.2-8 20.8 0l14.1 24.4h15.9L136.9 55.9l-58.6 101.5h34.1l-18.7 32.4H57.9c-9.2 0-15-10-10.4-18l79-124.3Z"/>
    <path d="M100.8 188.8h74.4l-18.7 32.4H82.1l18.7-32.4Z" opacity="0.92"/>
  </g>
  <text x="128" y="238" fill="#ffffff" font-family="Arial, Helvetica, sans-serif" font-size="24" font-weight="900" text-anchor="middle" letter-spacing="4">AVAX</text>
</svg>
